# xmcd
#
# Track frame offsets: 
#        150
#        7148
#        17979
#        30206
#        42425
#        54413
#        67021
#        78858
#        91103
#        102985
#        114982
#        127005
#        138672
#        150770
#        162944
#        175737
#        187922
#        199736
#        212270
#        224259
#        236306
#        248139
#        260376
#        272504
#        284869
#        296117
#        307050
#        318465
#        330366
#        341515
#        350005
#
# Disc length: 4791 seconds
#
# Revision: 0
# Processed by: cddbd v1.5.1PL0 Copyright (c) Steve Scherf et al.
# Submitted via: ExactAudioCopy v0.95a5
#
DISCID=bd12b51f
DTITLE=Various Artist - Premo Beats (Mixed by E-NYCE) - CD1
DYEAR=1900
DGENRE=Hip-Hop Instrumentals
TTITLE0=DJ Premier/Intro - What Is Hip Hop?
TTITLE1=Gangstarr/Next Time
TTITLE2=Group Home/Suspended In Time (Outro)
TTITLE3=Group Home/Up Against Da Wall
TTITLE4=Gangstarr and Inspectah Deck/ Above The Clouds
TTITLE5=Gangstarr/Zonin'
TTITLE6=Gangstarr/Riot Akt
TTITLE7=Gangstarr/The Squeeze (Training Day Soundtrack)
TTITLE8=Gangstarr/Who Got Gunz
TTITLE9=M.O.P. - Click Clap
TTITLE10=Afu Ra/Voodoo Child
TTITLE11=Bumpy Knuckles/Part Of My Life
TTITLE12=Crooklyn Dodgers/The Return
TTITLE13=Gangstarr/All 4 Da Cash
TTITLE14=Group Home/Baby Pa
TTITLE15=Jeru The Damaja/Ain't The Devil Happy
TTITLE16=Jeru The Damaja/How I'm Livin'
TTITLE17=Immobilarie/718
TTITLE18=Heather B/Guilty
TTITLE19=DJ Premier/Unreleased Beat
TTITLE20=DJ Premier/Unreleased Beat
TTITLE21=Jeru The Damaja/Wild Cowboys
TTITLE22=DJ Premier/Unreleased Beat
TTITLE23=Jeru The Damaja/Too Perverted
TTITLE24=DJ Premier/Unreleased Beat
TTITLE25=DJ Premier/Unreleased Beat
TTITLE26=Gangstarr/The Militia II
TTITLE27=Fat Joe/Shit Is Real Rmx
TTITLE28=Jadakiss/None Ya'll Betta
TTITLE29=Diamond D/Preview Of Underground Instrumentals Pt. 6
TTITLE30=Diamond D/Preview Of Underground Instrumentals Pt. 6
EXTD=
EXTT0=
EXTT1=
EXTT2=
EXTT3=
EXTT4=
EXTT5=
EXTT6=
EXTT7=
EXTT8=
EXTT9=
EXTT10=
EXTT11=
EXTT12=
EXTT13=
EXTT14=
EXTT15=
EXTT16=
EXTT17=
EXTT18=
EXTT19=
EXTT20=
EXTT21=
EXTT22=
EXTT23=
EXTT24=
EXTT25=
EXTT26=
EXTT27=
EXTT28=
EXTT29=
EXTT30=
PLAYORDER=
